<svg version="1" xmlns="http://www.w3.org/2000/svg" width="2666.667" height="2666.667" viewBox="0 0 2000.000000 2000.000000"><path d="M1248.5 307.1c-35.9 5.2-66.1 25.5-87.7 58.9-7 10.7-8.5 13.8-15.2 30.3-9.3 23-15.6 48.8-19.3 78.7-2.8 22.4-2.5 82 .5 110.5 1.3 12.5 2.2 27.6 2.2 37.2V639H1122.3l-.7-11.3c-6-97.2-32.2-176.9-71.1-216.2-11.6-11.8-20.5-17.4-39-24.9-29.2-11.8-59-36.1-74-60.5-2.1-3.3-4.2-6.1-4.6-6.1-1.2 0-1.1 41.1.1 55 3.8 41.7 15.3 79.9 31.7 105 7.5 11.4 18.2 23.7 43.5 49.7 36.1 37.3 50.2 53.3 61.5 70.3 6.9 10.4 17.7 32.4 20.9 42.5l2.6 8.4-4.2 4.8c-14.8 16.7-15.5 42.5-1.6 60.7l3.8 4.8-3.2 8.7c-11.2 29.9-31.2 60-63.2 95.2-70.4 77.3-128.7 153.6-168.4 220-5.3 9-11.7 19.5-14.1 23.4-6.2 9.9-29.7 57.2-37.1 74.5-23.7 56.3-37.7 109.2-42.7 161.4-1.9 19.9-2.1 59.5-.5 77.1 6.3 68.1 30.6 139.3 65.6 192 43.5 65.5 107.7 104.3 192.9 116.4 29.6 4.2 39.3 4.6 112.5 4.6 73 0 83.1-.4 117-4.6 114-14.1 193.6-63.4 244-151.3 8.3-14.4 21.7-42.2 27.3-56.6 9.7-24.8 21-66.7 20.5-76-.1-1.4.7-8.8 1.8-16.5 2.6-19.6 2.7-68.7.1-89-2.5-19-6.1-38.2-10.3-55.3-2-7.9-3.4-14.5-3.2-14.7.1-.2 2.8.3 5.8 1.1 5.7 1.5 18 1.9 18 .6-.1-1.6-29.7-53.4-30.6-53.5-.5 0-2.3 2.3-4.1 5.3-3.1 5.1-3.3 5.2-4.2 2.9-25-61.6-52.6-110.8-96.1-170.9-7-9.6-12.9-18.2-13.2-19-.9-2.3-29.5-37.7-45.7-56.5-28.8-33.4-46.1-51.7-95.6-101-51.4-51.3-61-61.9-75.1-83.1-7.3-11.1-17.7-30-20.9-38.1-1.7-4.2-1.7-4.3 1.3-10.2 8.6-17.2 5.5-38.4-7.6-52.4l-5-5.2 2.3-6.8c4.7-14 10.9-24.2 23.2-38.8 18.1-21.4 27.5-37 33.7-56.1 7.1-21.7 10-43.1 11.6-85.3 1.2-30.5 2.1-39.3 5.1-50 10.2-35.2 26.9-63.2 55.3-92.2 7.8-8.1 11.4-12.4 10.5-12.7-6.5-2.4-38.1-3.3-50.4-1.5zM1404 1372c17.1 3.2 29.3 15.3 33.5 33.1 3.8 16.4-.4 35.5-11.1 49.2-2 2.6-10.7 10.1-19.3 16.6-29.3 22.3-40.6 34.1-49.7 51.4l-4.8 9.4-4.7-6.6c-9.2-13-19.5-21.1-41.4-32.5-18.8-9.8-28.7-16.7-40-28-18.7-18.8-24.4-36.5-17.5-54.9 5.6-14.9 19-25 36.9-27.8 17-2.6 34.7 6.3 46 23.2l4 5.9 3.7-6.1c7.2-12 21.2-24.5 32.9-29.4 9.5-4 21.7-5.4 31.5-3.5zM1724.7 1005c-5.6 1.5-11 4.5-16.1 9.1-4.7 4.3-10.6 14.5-10.6 18.3 0 2-.5 2.1-6.4 2.1-7 0-10 1.5-14 6.9-2.8 3.7-2.8 11.6.1 15.4 2.7 3.7 8.1 7.2 10.9 7.2 3.6 0 2.9 1.7-1.3 3.1-3.9 1.2-14.6 1.4-19.6.3l-2.9-.6 1.7 2.9c4.7 8 4.4 7.9 13.4 6.5 12.6-1.8 20.3-5.8 23.7-12.5l1.5-2.8 4.2 3.6c5.6 4.8 13.8 8.6 20.3 9.2 3 .3 5.4.9 5.4 1.3 0 .8-6.3 3.8-12 5.7-7.3 2.3-25 2.8-36 .9-5.2-.9-10.3-1.9-11.2-2.2-1-.3-1.8-.1-1.8.4s3.2 5.7 7 11.5l7.1 10.7h6.2c15.8-.1 35.4-4.3 47-10.1 8.6-4.4 19.9-15.6 22.8-22.6 1.3-3.2 4.5-8.7 7.3-12.3 5-6.6 14.1-23.9 13-24.9-.3-.3-1.7 1-3.2 2.9-1.4 1.9-5 6-7.9 9l-5.3 5.5v-4c0-2.2-.7-7.1-1.5-10.8-4-19.2-14.5-29.4-30.9-30.3-3.9-.2-8.8.1-10.9.6zm20.1 14.3c9.1 6 11.1 18 5.8 34.9-1.5 4.8-3.4 9.2-4.2 9.8-2.5 2.2-13.6 2.4-19.5.5-6.8-2.3-15.3-10.4-14.7-14 .3-1.6.1-2.2-.8-1.8-1.7.6-3.7-5.9-3.6-12.3.1-12.7 10.3-20.6 25.8-20.1 5.8.2 7.8.7 11.2 3zm-51 19.8c1.7.6 3.3 1.8 3.6 2.7 2.9 10.7 3 11.9.9 15.3-1.8 3.1-2.3 3.4-6.8 3.3-4.2 0-5.2-.5-8.1-3.7-2.8-3-3.4-4.5-3.4-7.9.1-5.1 1.5-7.2 6.1-9.2 4.2-1.9 3.9-1.8 7.7-.5z"/><path d="M1507.7 1052.1c-4.9 3.8-3.5 7.7 4.1 12.1 8.1 4.6 17 14 21.5 22.5 4.5 8.7 6.7 17.9 6.7 29 0 7.3.2 8.4 2.2 9.7 3 2.1 5.4 2 7.8-.4 1.7-1.7 2-3.3 2-11.8 0-18.5-5.8-33.5-18.1-46.6-6.4-6.9-16.8-14.6-21.5-16-1.3-.4-3 .1-4.7 1.5zM1610.7 1239.8c-3.5 3.9-2 7.3 5.1 11.4 8.1 4.6 17 14 21.5 22.5 4.5 8.7 6.7 17.9 6.7 29 0 7.3.2 8.4 2.2 9.7 3 2.1 5.4 2 7.8-.4 1.7-1.7 2-3.3 2-11.8 0-24.5-11.5-45.3-32.4-58.7-6.1-3.9-10.4-4.5-12.9-1.7z"/></svg>