<svg version="1" xmlns="http://www.w3.org/2000/svg" width="512" height="512" viewBox="0 0 384.000000 384.000000"><path d="M156.1 40.6C144 43.8 132.5 53 127.6 63.3c-3.8 8.2-3.6 8.7 4.4 12.5 4.8 2.2 9.5 5.5 14.3 10.2l7.3 6.8L159 91c8.5-2.9 15.5-3.3 23.9-1.6 13.2 2.8 23.5 9.5 28.4 18.4 2.7 4.9 2.7 5.2 1.1 7.7l-1.7 2.6-3.3-5C196.6 97 173.9 90.9 157 99.5c-2.7 1.4-5.3 2.5-5.7 2.5-.4 0-2.1-2.1-3.8-4.5-5.7-8.6-16.7-15.9-28.2-18.9-26.6-6.9-55.2 10.3-61.3 37-2.4 10.4-2 9.8-8.1 10.6-12.9 1.6-25.3 10.6-31.2 22.7-3 6.2-3.2 7.2-3.2 17.6 0 10.7.1 11.2 3.5 17.4 4.8 8.9 11.5 15.5 19.7 19.4l6.8 3.2 56.3.3 56.2.3-1.5 2.8c-9.4 18.3-14.5 43.1-12.5 60.9 1.4 12.7 3.4 19.5 9 30.9 8.9 18.2 22.1 28.8 41 33 11.6 2.6 49.1 2.4 62-.4 14.7-3.2 23.9-8 33.7-17.8 7.2-7.1 9-9.7 13.3-18.6 2.7-5.7 5.6-13.1 6.4-16.3.9-3.2 1.8-6.1 2-6.3.2-.3 3.7-.9 7.8-1.4 8.5-1.1 19.1-5.8 25.5-11.3 15-13.1 20.5-36 13.1-54.9-.9-2.3-.7-3.3 1.6-6.7 3-4.5 3.2-5.4 1.1-4.6-.9.3-1.5 0-1.5-.8 0-.7-1-2.6-2.1-4-1.9-2.4-2.8-2.7-6.8-2.5-3.9.3-5.3-.1-9.1-3-15.6-11.6-38.2-12.2-55.1-1.5-2.2 1.4-4.2 2.4-4.4 2.2-.1-.2-2.4-3-5-6.3-2.7-3.3-9.3-10.8-14.7-16.6l-9.8-10.6 5.4-.6c11.4-1.2 21.1-8.1 25.9-18.5 3.1-6.8 3-19.9-.2-26-3.4-6.6-9.4-12.5-15.3-15.2-6.2-2.9-6.8-3.5-6.8-7.5 0-4.8-5.5-15.1-10.6-20.1l-4.7-4.6 2.5-5.1c1.4-2.9 4.5-7.3 6.8-9.9l4.2-4.8-2.9-1.1c-6.9-2.6-17.9 1.6-25 9.6-4.3 4.7-5.4 5.4-10.4 6.4-3.2.5-7.8 2-10.4 3.2l-4.8 2.2-2-2.9c-10.6-15-30.4-22.4-47.6-17.8zM354 193.9c.5 1.1.7 2.7.4 3.6-.6 1.4-1 1.2-3-1.2-1.3-1.5-2.3-3.1-2.4-3.6 0-1.6 4-.6 5 1.2zm-77.2 69.7c11.6 4.8 16.3 17.7 10.7 29.1-8.3 16.6-31.8 16.1-40.6-.9-4.9-9.6-.1-22.5 10.4-27.7 5.1-2.5 14.1-2.8 19.5-.5z"/><path d="M257.5 267.3c-5.4 3-8.5 8.7-8.5 15.5 0 6.3 1.6 9.8 6.6 14.1 4.6 4.1 7.8 5.4 13.2 5.2 8.6-.2 14.8-5.4 17.3-14.4 1.9-7.1-3.7-17.4-11.8-21.6-3.8-1.9-12.4-1.3-16.8 1.2zm20.2 4.4c1.1 1 2.5 2.9 3.2 4.1 2 3.8 1.4 15.2-.7 15.2-.4 0-.6-1.8-.4-3.9.5-4.7-1.1-7.9-4.2-8.7-2-.5-2.4-1.1-2.2-4.5.1-4.3 1.2-4.8 4.3-2.2zm-13.7 4.7c-.6 2-1.9 4-2.8 4.6-1.6.9-1.6 1.1 0 2.3 2 1.6 1.4 2.7-1.4 2.7-3.2 0-1.7-7.3 2.4-11.7 2.8-2.9 3.3-2.3 1.8 2.1zm2.7 8.3c-.3 1-.5.2-.5-1.7s.2-2.7.5-1.8c.2 1 .2 2.6 0 3.5zm6.9 2c-1 1-1.9-.5-1-1.8.6-1.1.8-1.1 1.2 0 .2.7.1 1.5-.2 1.8zM268 292c-1.1.7-1.2 1.3-.2 3.4 1.4 3.2.1 3.4-3.3.4-3-2.6-3.2-3.8-.5-3.8 1.1 0 2.3-.7 2.7-1.6.4-1.1.9-1.2 1.7-.4.8.8.7 1.3-.4 2z"/></svg>